<svg width="32" height="32" viewBox="0 0 32 32" fill="none" xmlns="http://www.w3.org/2000/svg">
<g clip-path="url(#clip0_24_60)">
<path d="M27 5.5H5C3.89543 5.5 3 6.39543 3 7.5V27C3 28.1046 3.89543 29 5 29H27C28.1046 29 29 28.1046 29 27V7.5C29 6.39543 28.1046 5.5 27 5.5Z" fill="url(#paint0_linear_24_60)"/>
<path d="M27 3H5C3.89543 3 3 3.89543 3 5V25C3 26.1046 3.89543 27 5 27H27C28.1046 27 29 26.1046 29 25V5C29 3.89543 28.1046 3 27 3Z" fill="#191919"/>
<path d="M27 26H5C4.44772 26 4 25.5523 4 25V5C4 4.44772 4.44772 4.00001 5 4.00001H27C27.5523 4.00001 28 4.44772 28 5V25C28 25.5523 27.5523 26 27 26Z" fill="#0F0F0F"/>
<path opacity="0.05" d="M5 25H27V5.5H5V25Z" fill="url(#paint1_radial_24_60)"/>
<g filter="url(#filter0_f_24_60)">
<path d="M10.5031 9.22192L7 7.31799V8.50004L9.42768 9.65742V9.69297L7 11V12.1821L10.5031 10.1285V9.22192Z" fill="#24FF32" fill-opacity="0.4"/>
<path d="M11.5 13L11.5 14H15.5V13H11.5Z" fill="#24FF32" fill-opacity="0.4"/>
</g>
<g filter="url(#filter1_f_24_60)">
<path d="M10.5031 9.22192L7 7.31799V8.50004L9.42768 9.65742V9.69297L7 11V12.1821L10.5031 10.1285V9.22192Z" fill="#24FF32" fill-opacity="0.4"/>
<path d="M11.5 13L11.5 14H15.5V13H11.5Z" fill="#24FF32" fill-opacity="0.4"/>
</g>
<path d="M10.5031 9.22192L7 7.31799V8.50004L9.42768 9.65742V9.69297L7 11V12.1821L10.5031 10.1285V9.22192Z" fill="#24FF32"/>
<path d="M7.05 12.0948V11.0299L9.45138 9.73699L9.47768 9.72283V9.69297V9.65742V9.62586L9.4492 9.61228L7.05 8.46848V7.40208L10.4531 9.25166V10.0998L7.05 12.0948Z" stroke="white" stroke-opacity="0.4" stroke-width="0.1"/>
<path d="M11.5 13L11.5 14H15.5V13H11.5Z" fill="#24FF32"/>
<path d="M11.55 13.95L11.55 13.05H15.45V13.95H11.55Z" stroke="white" stroke-opacity="0.4" stroke-width="0.1"/>
<path d="M25 18H26V19H25V18ZM23 18H24V19H23V18ZM21 18H22V19H21V18ZM19 18H20V19H19V18ZM17 18H18V19H17V18ZM15 18H16V19H15V18ZM13 18H14V19H13V18ZM11 18H12V19H11V18ZM9 18H10V19H9V18ZM7 18H8V19H7V18ZM5 18H6V19H5V18ZM26 19H27V20H26V19ZM24 19H25V20H24V19ZM22 19H23V20H22V19ZM20 19H21V20H20V19ZM18 19H19V20H18V19ZM16 19H17V20H16V19ZM14 19H15V20H14V19ZM12 19H13V20H12V19ZM10 19H11V20H10V19ZM8 19H9V20H8V19ZM6 19H7V20H6V19ZM25 20H26V21H25V20ZM23 20H24V21H23V20ZM21 20H22V21H21V20ZM19 20H20V21H19V20ZM17 20H18V21H17V20ZM15 20H16V21H15V20ZM13 20H14V21H13V20ZM11 20H12V21H11V20ZM9 20H10V21H9V20ZM7 20H8V21H7V20ZM5 20H6V21H5V20ZM26 21H27V22H26V21ZM24 21H25V22H24V21ZM22 21H23V22H22V21ZM20 21H21V22H20V21ZM18 21H19V22H18V21ZM16 21H17V22H16V21ZM14 21H15V22H14V21ZM12 21H13V22H12V21ZM10 21H11V22H10V21ZM8 21H9V22H8V21ZM6 21H7V22H6V21ZM25 22H26V23H25V22ZM23 22H24V23H23V22ZM21 22H22V23H21V22ZM19 22H20V23H19V22ZM17 22H18V23H17V22ZM15 22H16V23H15V22ZM13 22H14V23H13V22ZM11 22H12V23H11V22ZM9 22H10V23H9V22ZM7 22H8V23H7V22ZM5 22H6V23H5V22ZM26 23H27V24H26V23ZM24 23H25V24H24V23ZM22 23H23V24H22V23ZM20 23H21V24H20V23ZM18 23H19V24H18V23ZM16 23H17V24H16V23ZM14 23H15V24H14V23ZM12 23H13V24H12V23ZM10 23H11V24H10V23ZM8 23H9V24H8V23ZM6 23H7V24H6V23ZM25 24H26V25H25V24ZM23 24H24V25H23V24ZM21 24H22V25H21V24ZM19 24H20V25H19V24ZM17 24H18V25H17V24ZM15 24H16V25H15V24ZM13 24H14V25H13V24ZM11 24H12V25H11V24ZM9 24H10V25H9V24ZM7 24H8V25H7V24ZM5 24H6V25H5V24Z" fill="url(#paint2_linear_24_60)"/>
</g>
<defs>
<filter id="filter0_f_24_60" x="6" y="6.31799" width="10.5" height="8.68201" filterUnits="userSpaceOnUse" color-interpolation-filters="sRGB">
<feFlood flood-opacity="0" result="BackgroundImageFix"/>
<feBlend mode="normal" in="SourceGraphic" in2="BackgroundImageFix" result="shape"/>
<feGaussianBlur stdDeviation="0.5" result="effect1_foregroundBlur_24_60"/>
</filter>
<filter id="filter1_f_24_60" x="6" y="6.31799" width="10.5" height="8.68201" filterUnits="userSpaceOnUse" color-interpolation-filters="sRGB">
<feFlood flood-opacity="0" result="BackgroundImageFix"/>
<feBlend mode="normal" in="SourceGraphic" in2="BackgroundImageFix" result="shape"/>
<feGaussianBlur stdDeviation="0.5" result="effect1_foregroundBlur_24_60"/>
</filter>
<linearGradient id="paint0_linear_24_60" x1="3" y1="16" x2="29" y2="16" gradientUnits="userSpaceOnUse">
<stop stop-color="#282828"/>
<stop offset="0.05" stop-color="#52514E"/>
<stop offset="0.1" stop-color="#4A4946"/>
<stop offset="0.899999" stop-color="#181714"/>
<stop offset="0.95" stop-color="#343332"/>
<stop offset="1" stop-color="#141417"/>
</linearGradient>
<radialGradient id="paint1_radial_24_60" cx="0" cy="0" r="1" gradientUnits="userSpaceOnUse" gradientTransform="translate(16 24) scale(52 18)">
<stop stop-color="white"/>
<stop offset="1" stop-color="white" stop-opacity="0.0941176"/>
</radialGradient>
<linearGradient id="paint2_linear_24_60" x1="17.5866" y1="18.3488" x2="17.5866" y2="24.2842" gradientUnits="userSpaceOnUse">
<stop stop-opacity="0"/>
<stop offset="1" stop-color="white" stop-opacity="0.02"/>
</linearGradient>
<clipPath id="clip0_24_60">
<rect width="32" height="32" fill="white"/>
</clipPath>
</defs>
</svg>
